<?xml version="1.0" standalone="no"?><!DOCTYPE svg PUBLIC "-//W3C//DTD SVG 1.1//EN" "http://www.w3.org/Graphics/SVG/1.1/DTD/svg11.dtd"><svg class="icon" width="200px" height="200.00px" viewBox="0 0 1024 1024" version="1.1" xmlns="http://www.w3.org/2000/svg"><path fill="#d81e06" d="M730.752 784h-448V514.432A210.987 210.987 0 0 1 493.184 304h27.221a210.987 210.987 0 0 1 210.347 210.432V784zM420.096 667.99a25.6 25.6 0 0 0 32 40.02l128-102.4a25.6 25.6 0 0 0-6.528-43.775L486.4 526.933l93.696-74.922a25.6 25.6 0 0 0-32-40.022l-128 102.4a25.6 25.6 0 0 0 6.528 43.776l87.21 34.902-93.695 74.922z m356.395 259.797H232.533c-26.453 0-48-21.59-48-48 0-26.454 21.59-48 48-48h544c26.368 0 48 21.546 48 48s-21.632 48-48 48zM506.752 224a25.6 25.6 0 0 1-25.515-25.6V89.6a25.6 25.6 0 0 1 51.115 0v108.8a25.6 25.6 0 0 1-25.6 25.6zM215.893 469.888a25.6 25.6 0 0 1-32.853 15.275L80.896 448a25.6 25.6 0 1 1 17.493-48.128l102.272 37.163a25.6 25.6 0 0 1 15.232 32.853z m587.222 0a25.728 25.728 0 0 1 15.232-32.853l102.272-37.163a25.685 25.685 0 0 1 32.853 15.275A25.728 25.728 0 0 1 938.112 448l-102.144 37.163a25.685 25.685 0 0 1-32.853-15.275zM314.58 286.251a25.685 25.685 0 0 1-35.669-6.272l-62.293-89.174a25.685 25.685 0 0 1 6.186-35.626 25.77 25.77 0 0 1 35.712 6.272l62.379 89.173a25.643 25.643 0 0 1-6.315 35.627z m389.675 0a25.685 25.685 0 0 1-6.272-35.627l62.379-89.173a25.77 25.77 0 0 1 35.712-6.272 25.685 25.685 0 0 1 6.229 35.669l-62.336 89.173a25.77 25.77 0 0 1-35.712 6.23z"  /></svg>