<?xml version="1.0" standalone="no"?><!DOCTYPE svg PUBLIC "-//W3C//DTD SVG 1.1//EN" "http://www.w3.org/Graphics/SVG/1.1/DTD/svg11.dtd"><svg height="1024" node-id="1" sillyvg="true" template-height="1024" template-width="1024" version="1.1" viewBox="0 0 1024 1024" width="1024" xmlns="http://www.w3.org/2000/svg" xmlns:xlink="http://www.w3.org/1999/xlink"><defs node-id="44"><linearGradient gradientUnits="userSpaceOnUse" id="paint0_linear_1_136" node-id="23" spreadMethod="pad" x1="157.915" x2="867.027" y1="796.38" y2="796.38"><stop offset="0" stop-color="#f6f6f9"></stop><stop offset="1" stop-color="#cadefe"></stop></linearGradient><linearGradient gradientUnits="userSpaceOnUse" id="paint1_linear_1_136" node-id="26" spreadMethod="pad" x1="227.7" x2="788.068" y1="607.023" y2="660.952"><stop offset="0" stop-color="#cadefe"></stop><stop offset="1" stop-color="#e5efff"></stop></linearGradient><linearGradient gradientUnits="userSpaceOnUse" id="paint2_linear_1_136" node-id="29" spreadMethod="pad" x1="321.538" x2="744.32" y1="182.551" y2="262.642"><stop offset="0" stop-color="#eaf0ff"></stop><stop offset="1" stop-color="#b2d0fb"></stop></linearGradient><linearGradient gradientUnits="userSpaceOnUse" id="paint3_linear_1_136" node-id="32" spreadMethod="pad" x1="455.332" x2="475.626" y1="118.131" y2="592.682"><stop offset="0" stop-color="#599ef7"></stop><stop offset="1" stop-color="#5096ef"></stop></linearGradient><linearGradient gradientUnits="userSpaceOnUse" id="paint4_linear_1_136" node-id="35" spreadMethod="pad" x1="565.776" x2="586.97" y1="35.048" y2="303.806"><stop offset="0" stop-color="#79b9fd"></stop><stop offset="1" stop-color="#93c4ff"></stop></linearGradient><linearGradient gradientUnits="userSpaceOnUse" id="paint5_linear_1_136" node-id="38" spreadMethod="pad" x1="668.737" x2="668.737" y1="279.136" y2="816.003"><stop offset="0" stop-color="#a2caff"></stop><stop offset="1" stop-color="#aed1ff"></stop></linearGradient><filter height="575" id="filter0_f_1_136" node-id="15" width="918" x="49" y="537"><feFlood color-interpolation-filters="sRGB" flood-color="#000000" flood-opacity="0" result="BackgroundImageFix"></feFlood><feBlend color-interpolation-filters="sRGB" in="SourceGraphic" in2="BackgroundImageFix" mode="normal" result="shape"></feBlend><feGaussianBlur color-interpolation-filters="sRGB" in="shape" result="effect1_foregroundBlur_1_136" stdDeviation="50 50"></feGaussianBlur></filter><filter height="295.537" id="filter1_f_1_136" node-id="19" width="399.599" x="305.157" y="499.699"><feFlood color-interpolation-filters="sRGB" flood-color="#000000" flood-opacity="0" result="BackgroundImageFix"></feFlood><feBlend color-interpolation-filters="sRGB" in="SourceGraphic" in2="BackgroundImageFix" mode="normal" result="shape"></feBlend><feGaussianBlur color-interpolation-filters="sRGB" in="shape" result="effect1_foregroundBlur_1_136" stdDeviation="7 7"></feGaussianBlur></filter><clipPath id="clip0_1_136" node-id="41"><path d="M 0.00 0.00 L 1024.00 0.00 L 1024.00 1024.00 L 0.00 1024.00 Z" fill="#000000" fill-rule="nonzero" node-id="99" stroke="none" target-height="1024" target-width="1024" target-x="0" target-y="0"></path></clipPath></defs><g clip-path="url(#clip0_1_136)" id="sillyvg_g_0" node-id="103"><path d="M 149.00 769.14 L 570.01 1012.00 L 867.00 730.01 L 384.45 637.00 L 149.00 769.14 Z" fill="#595656" fill-opacity="0.1582845" fill-rule="evenodd" filter="url(#filter0_f_1_136)" group-id="1" node-id="107" stroke="none" target-height="375" target-width="718" target-x="149" target-y="637"></path><path d="M 866.70 665.17 C 866.58 666.89 866.47 668.74 866.35 670.47 C 866.24 671.96 866.01 673.58 865.77 675.07 C 865.54 676.80 865.32 678.64 864.97 680.37 C 864.62 681.98 864.39 683.48 864.05 685.10 C 863.70 686.82 863.24 688.55 862.78 690.28 C 862.32 691.89 861.86 693.39 861.40 695.00 C 860.82 696.73 860.36 698.46 859.67 700.07 C 859.09 701.57 858.52 703.18 857.94 704.68 C 857.25 706.52 856.45 708.25 855.64 710.09 C 854.95 711.59 854.26 713.09 853.57 714.58 C 852.64 716.31 851.72 718.16 850.80 719.88 C 849.99 721.27 849.19 722.76 848.38 724.15 C 847.11 726.22 845.85 728.29 844.46 730.37 C 843.66 731.63 842.85 732.90 841.93 734.17 C 840.32 736.47 838.71 738.77 836.98 740.96 C 836.17 742.00 835.36 743.15 834.56 744.19 C 834.21 744.65 833.75 745.11 833.41 745.69 C 831.56 747.99 829.60 750.18 827.65 752.48 C 827.07 753.06 826.61 753.75 826.03 754.33 C 823.61 756.86 821.20 759.51 818.66 762.04 C 818.20 762.50 817.74 762.97 817.28 763.43 C 815.32 765.27 813.25 767.23 811.17 769.07 C 809.56 770.57 807.83 772.07 806.11 773.56 C 804.49 774.95 802.88 776.33 801.27 777.60 C 799.42 779.09 797.58 780.48 795.74 781.97 C 794.01 783.24 792.28 784.62 790.44 785.89 C 788.48 787.27 786.52 788.65 784.45 790.15 C 782.61 791.42 780.76 792.69 778.80 793.95 C 776.73 795.34 774.54 796.72 772.35 797.99 C 769.70 799.71 766.94 801.33 764.17 802.94 C 758.88 806.05 753.46 808.93 747.82 811.81 C 746.20 812.62 744.59 813.42 742.98 814.23 C 738.72 816.42 734.22 818.38 729.85 820.45 C 728.35 821.14 726.85 821.83 725.35 822.52 C 719.59 825.06 713.72 827.48 707.61 829.78 C 706.58 830.12 705.54 830.59 704.39 830.93 C 699.32 832.77 694.14 834.62 688.95 836.35 C 686.88 837.04 684.69 837.73 682.50 838.42 C 679.62 839.34 676.74 840.15 673.86 841.07 C 671.44 841.76 669.02 842.45 666.49 843.14 C 663.61 843.95 660.61 844.75 657.62 845.45 C 655.20 846.14 652.67 846.71 650.25 847.29 C 647.25 847.98 644.26 848.67 641.15 849.36 C 638.61 849.94 636.19 850.51 633.66 850.98 C 630.55 851.67 627.44 852.24 624.44 852.82 C 622.02 853.28 619.72 853.74 617.30 854.20 C 610.62 855.35 603.94 856.50 597.26 857.43 C 596.34 857.54 595.30 857.66 594.38 857.77 C 588.50 858.58 582.63 859.27 576.75 859.85 C 574.45 860.08 572.26 860.30 569.96 860.54 C 566.15 860.88 562.35 861.23 558.55 861.46 C 556.13 861.69 553.71 861.80 551.41 861.92 C 547.49 862.15 543.46 862.38 539.54 862.49 C 537.36 862.61 535.05 862.73 532.86 862.73 C 529.41 862.84 525.95 862.84 522.50 862.96 C 520.08 862.96 517.66 863.07 515.24 863.07 C 511.55 863.07 507.87 863.07 504.18 862.96 C 501.99 862.96 499.80 862.96 497.61 862.84 C 494.27 862.73 490.82 862.61 487.48 862.49 C 485.06 862.38 482.75 862.38 480.33 862.15 C 476.65 861.92 473.08 861.69 469.51 861.46 C 467.43 861.34 465.36 861.23 463.17 861.00 C 458.79 860.65 454.42 860.19 450.04 859.73 C 448.66 859.61 447.39 859.50 446.01 859.38 C 440.36 858.69 434.72 858.00 429.07 857.20 C 428.15 857.08 427.35 856.97 426.42 856.73 C 421.59 856.04 416.75 855.24 411.91 854.43 C 409.95 854.09 407.99 853.74 406.03 853.28 C 402.35 852.59 398.66 851.90 394.98 851.21 C 393.13 850.86 391.17 850.40 389.33 849.94 C 385.30 849.13 381.38 848.21 377.35 847.29 C 375.16 846.71 372.97 846.14 370.79 845.68 C 367.21 844.75 363.64 843.83 360.07 842.80 C 358.00 842.22 356.04 841.64 353.97 841.07 C 348.32 839.46 342.79 837.73 337.26 835.88 C 336.23 835.54 335.31 835.31 334.27 834.96 C 327.93 832.77 321.71 830.47 315.49 828.17 C 312.96 827.25 310.54 826.21 308.00 825.17 C 306.05 824.37 304.09 823.56 302.13 822.75 C 299.36 821.60 296.60 820.33 293.83 819.07 C 291.99 818.26 290.26 817.45 288.42 816.65 C 285.43 815.26 282.55 813.77 279.55 812.27 C 278.05 811.58 276.56 810.77 275.17 810.08 C 270.80 807.78 266.53 805.47 262.39 803.05 C 192.46 762.74 157.56 709.75 157.79 656.87 L 157.56 729.56 C 157.44 782.43 192.35 835.42 262.16 875.74 C 266.30 878.16 270.57 880.46 274.94 882.77 C 276.32 883.46 277.82 884.27 279.32 884.96 C 282.20 886.46 285.19 887.95 288.19 889.33 C 289.92 890.14 291.76 890.95 293.49 891.75 C 296.25 893.02 299.02 894.29 301.78 895.44 C 303.74 896.25 305.70 897.05 307.66 897.86 C 309.50 898.66 311.46 899.47 313.30 900.16 C 313.88 900.39 314.57 900.62 315.15 900.85 C 321.25 903.27 327.59 905.58 333.92 907.65 C 334.96 908.00 335.88 908.34 336.92 908.57 C 342.45 910.41 347.98 912.14 353.62 913.76 C 354.54 913.99 355.46 914.33 356.38 914.68 C 357.42 915.02 358.57 915.25 359.61 915.48 C 363.18 916.52 366.75 917.44 370.32 918.36 C 372.51 918.94 374.70 919.51 376.89 919.98 C 380.81 920.90 384.84 921.82 388.87 922.63 C 390.37 922.97 391.87 923.32 393.36 923.66 C 393.71 923.78 394.17 923.78 394.63 923.89 C 398.20 924.58 401.89 925.27 405.57 925.97 C 407.53 926.31 409.61 926.77 411.56 927.12 C 416.40 927.92 421.24 928.73 426.08 929.42 C 426.88 929.54 427.69 929.65 428.50 929.77 L 428.61 929.77 C 434.26 930.57 439.90 931.26 445.55 931.96 C 447.04 932.07 448.54 932.19 450.04 932.42 C 454.19 932.88 458.45 933.34 462.71 933.68 C 462.82 933.68 462.94 933.68 463.06 933.68 C 465.13 933.80 467.09 933.91 469.16 934.14 C 472.73 934.38 476.30 934.72 479.87 934.84 C 482.29 934.95 484.60 935.07 487.02 935.18 C 490.36 935.30 493.81 935.53 497.15 935.53 C 497.38 935.53 497.73 935.53 497.96 935.53 C 499.92 935.53 501.76 935.53 503.72 935.53 C 507.40 935.53 511.09 935.64 514.78 935.64 C 517.20 935.64 519.62 935.53 522.03 935.53 C 525.49 935.53 528.95 935.41 532.40 935.30 C 533.09 935.30 533.67 935.30 534.36 935.30 C 535.97 935.30 537.59 935.07 539.20 935.07 C 543.23 934.95 547.15 934.72 551.06 934.49 C 553.48 934.38 555.90 934.14 558.21 934.03 C 562.01 933.80 565.81 933.45 569.61 933.11 C 570.99 932.99 572.26 932.88 573.64 932.76 C 574.56 932.65 575.49 932.53 576.41 932.42 C 582.28 931.84 588.16 931.15 594.03 930.34 C 594.95 930.23 595.99 930.11 596.91 930.00 C 603.59 929.08 610.27 927.92 616.96 926.77 C 617.53 926.66 618.22 926.54 618.80 926.43 C 620.53 926.08 622.37 925.74 624.10 925.39 C 627.21 924.81 630.32 924.24 633.31 923.55 C 635.85 922.97 638.38 922.51 640.80 921.93 C 643.80 921.24 646.79 920.55 649.79 919.86 C 652.32 919.28 654.74 918.59 657.27 918.02 C 660.27 917.21 663.15 916.52 666.03 915.71 C 668.45 915.02 670.98 914.33 673.40 913.64 C 676.28 912.83 679.16 911.91 682.04 910.99 C 683.31 910.64 684.57 910.30 685.84 909.84 C 686.76 909.49 687.57 909.15 688.49 908.92 C 693.67 907.19 698.74 905.46 703.81 903.50 C 704.85 903.16 706.00 902.70 707.04 902.35 C 713.03 900.05 718.90 897.63 724.66 895.09 C 726.16 894.40 727.66 893.71 729.15 893.02 C 733.65 891.06 738.02 888.99 742.29 886.80 C 743.90 885.99 745.51 885.19 747.12 884.38 C 752.65 881.50 758.18 878.62 763.48 875.51 C 764.98 874.71 766.36 873.78 767.86 872.98 C 769.24 872.17 770.39 871.36 771.78 870.56 C 773.97 869.17 776.15 867.91 778.23 866.53 C 780.19 865.26 782.03 863.99 783.87 862.73 C 785.95 861.34 787.90 859.96 789.86 858.46 C 791.71 857.20 793.43 855.81 795.16 854.55 C 797.00 853.05 798.96 851.67 800.69 850.17 C 802.30 848.79 803.92 847.52 805.53 846.14 C 807.26 844.64 808.98 843.14 810.60 841.64 C 811.29 841.07 811.98 840.38 812.67 839.80 C 814.05 838.53 815.32 837.27 816.59 836.00 C 817.05 835.54 817.51 835.08 817.97 834.62 C 820.50 832.08 823.04 829.55 825.34 826.90 C 825.92 826.32 826.49 825.63 826.96 825.06 C 828.91 822.87 830.87 820.56 832.72 818.26 C 833.06 817.80 833.52 817.22 833.98 816.76 C 834.21 816.53 834.33 816.30 834.56 816.07 C 835.25 815.26 835.71 814.34 836.40 813.54 C 838.13 811.23 839.86 809.04 841.35 806.74 C 842.28 805.47 842.97 804.21 843.89 802.94 C 845.27 800.87 846.54 798.79 847.80 796.72 C 848.15 796.14 848.50 795.57 848.84 794.99 C 849.30 794.18 849.76 793.26 850.22 792.46 C 851.15 790.73 852.07 788.88 852.99 787.16 C 853.68 785.66 854.37 784.16 855.06 782.66 C 855.87 780.82 856.56 779.09 857.37 777.25 C 857.71 776.44 858.06 775.64 858.40 774.83 C 858.63 774.14 858.86 773.33 859.09 772.64 C 859.67 770.91 860.25 769.19 860.82 767.46 C 861.28 765.85 861.74 764.35 862.20 762.74 C 862.66 761.01 863.13 759.28 863.47 757.55 C 863.70 756.63 863.93 755.71 864.16 754.79 C 864.28 754.21 864.39 753.52 864.51 752.94 C 864.85 751.22 865.08 749.37 865.32 747.64 C 865.54 746.15 865.77 744.53 865.89 743.04 C 866.12 741.31 866.12 739.47 866.24 737.74 C 866.24 736.70 866.47 735.66 866.47 734.63 C 866.47 733.59 866.47 732.55 866.47 731.52 L 866.70 658.83 C 867.04 661.02 866.81 663.09 866.70 665.17 Z" fill="url(#paint0_linear_1_136)" fill-rule="nonzero" node-id="110" stroke="none" target-height="278.771" target-width="709.597" target-x="157.445" target-y="656.872"></path><path d="M 762.33 512.77 C 901.26 592.95 901.95 722.89 764.06 803.07 C 626.06 883.24 401.66 883.24 262.73 803.07 C 123.92 722.89 123.12 592.95 261.12 512.66 C 399.12 432.60 623.52 432.60 762.33 512.77 Z" fill="url(#paint1_linear_1_136)" fill-rule="nonzero" node-id="112" stroke="none" target-height="450.641" target-width="778.83" target-x="123.118" target-y="432.599"></path><path d="M 683.87 739.33 L 680.86 744.52 L 677.40 749.35 L 673.49 753.85 L 669.10 758.03 L 664.21 761.90 L 659.09 765.30 L 653.56 768.40 L 647.60 771.20 L 641.18 773.69 L 634.25 775.87 L 625.63 777.96 L 616.44 779.56 L 606.64 780.64 L 596.17 781.18 L 585.87 781.16 L 575.11 780.60 L 563.88 779.49 L 552.15 777.79 L 540.67 775.63 L 528.89 772.89 L 516.80 769.58 L 504.38 765.65 L 492.25 761.30 L 479.99 756.38 L 467.59 750.85 L 455.03 744.70 L 442.72 738.08 L 431.00 731.22 L 419.85 724.13 L 409.25 716.81 L 398.82 709.01 L 389.08 701.11 L 380.00 693.13 L 371.55 685.06 L 363.33 676.52 L 355.88 668.04 L 349.16 659.63 L 343.14 651.27 L 337.48 642.45 L 332.64 633.84 L 328.59 625.44 L 325.27 617.22 L 323.00 610.33 L 321.28 603.65 L 320.08 597.18 L 319.38 590.88 L 319.16 584.74 L 319.45 578.50 L 320.29 572.50 L 321.67 566.70 L 323.58 561.08 L 326.04 555.60 L 329.05 550.42 L 332.51 545.58 L 336.42 541.09 L 340.81 536.91 L 345.70 533.04 L 350.82 529.64 L 356.35 526.53 L 362.31 523.73 L 368.74 521.24 L 375.67 519.07 L 384.28 516.98 L 393.47 515.38 L 403.28 514.29 L 413.75 513.75 L 424.05 513.78 L 434.80 514.33 L 446.03 515.44 L 457.76 517.14 L 469.25 519.31 L 481.03 522.04 L 493.12 525.36 L 505.54 529.28 L 517.66 533.63 L 529.92 538.56 L 542.33 544.08 L 554.88 550.23 L 567.19 556.85 L 578.91 563.71 L 590.06 570.80 L 600.66 578.12 L 611.09 585.93 L 620.83 593.82 L 629.91 601.80 L 638.37 609.87 L 646.59 618.42 L 654.03 626.89 L 660.75 635.31 L 666.77 643.67 L 672.44 652.49 L 677.27 661.09 L 681.32 669.49 L 684.64 677.71 L 686.92 684.60 L 688.64 691.28 L 689.84 697.76 L 690.54 704.06 L 690.76 710.20 L 690.46 716.43 L 689.62 722.43 L 688.25 728.23 L 686.33 733.86 L 683.87 739.33 Z" fill="#1f3899" fill-opacity="0.065016" fill-rule="nonzero" filter="url(#filter1_f_1_136)" group-id="2,3" node-id="118" stroke="none" target-height="267.42737" target-width="371.59622" target-x="319.1589" target-y="513.7533"></path><path d="M 628.09 816.00 L 629.01 321.21 L 285.00 65.37 L 287.05 560.85 L 628.09 816.00 Z" fill="url(#paint2_linear_1_136)" fill-rule="nonzero" node-id="122" stroke="none" target-height="750.62415" target-width="344.00598" target-x="285" target-y="65.3718"></path><path d="M 601.46 686.43 L 602.20 334.61 L 308.47 118.13 L 310.15 470.51 L 601.46 686.43 Z" fill="url(#paint3_linear_1_136)" fill-rule="nonzero" node-id="124" stroke="none" target-height="568.296" target-width="293.726" target-x="308.469" target-y="118.131"></path><path d="M 285.00 65.37 L 368.68 26.00 L 710.29 279.13 L 629.01 321.22 L 285.00 65.37 Z" fill="url(#paint4_linear_1_136)" fill-rule="nonzero" node-id="126" stroke="none" target-height="295.217" target-width="425.292" target-x="285" target-y="26"></path><path d="M 628.09 816.00 L 709.38 760.21 L 709.38 279.14 L 629.01 321.22 L 628.09 816.00 Z" fill="url(#paint5_linear_1_136)" fill-rule="nonzero" node-id="128" stroke="none" target-height="536.867" target-width="81.285034" target-x="628.094" target-y="279.136"></path><path d="M 451.37 609.79 L 452.47 615.60 L 452.93 620.99 L 452.77 626.03 L 451.99 631.01 L 450.71 635.22 L 448.95 638.78 L 447.23 641.19 L 445.29 643.05 L 443.14 644.42 L 440.75 645.32 L 438.22 645.64 L 435.69 645.45 L 433.11 644.72 L 430.43 643.41 L 427.22 641.09 L 424.11 637.98 L 421.08 633.96 L 418.57 629.58 L 416.42 624.61 L 414.67 618.97 L 413.55 613.16 L 413.11 607.76 L 413.27 602.73 L 414.04 597.75 L 415.33 593.53 L 417.07 589.98 L 418.81 587.57 L 420.75 585.70 L 422.89 584.34 L 425.29 583.43 L 427.81 583.12 L 430.35 583.31 L 432.92 584.03 L 435.59 585.35 L 438.81 587.66 L 441.93 590.78 L 444.96 594.80 L 447.47 599.17 L 449.62 604.15 L 451.37 609.79 Z" fill="#69acff" fill-rule="nonzero" node-id="130" stroke="none" target-height="62.52704" target-width="39.81299" target-x="413.113" target-y="583.115"></path></g></svg>