<?xml version="1.0" standalone="no"?><!DOCTYPE svg PUBLIC "-//W3C//DTD SVG 1.1//EN" "http://www.w3.org/Graphics/SVG/1.1/DTD/svg11.dtd"><svg height="1024" node-id="1" sillyvg="true" template-height="1024" template-width="1024" version="1.1" viewBox="0 0 1024 1024" width="1024" xmlns="http://www.w3.org/2000/svg" xmlns:xlink="http://www.w3.org/1999/xlink"><defs node-id="51"><linearGradient gradientUnits="objectBoundingBox" id="linearGradient-4" node-id="11" spreadMethod="pad" x1="0.58876157" x2="0.37995768" y1="0.26412997" y2="0.944111"><stop offset="0" stop-color="#3e83ee"></stop><stop offset="1" stop-color="#5986f0"></stop></linearGradient><linearGradient gradientUnits="objectBoundingBox" id="linearGradient-6" node-id="16" spreadMethod="pad" x1="0.8053372" x2="0" y1="0.36415228" y2="0.7421479"><stop offset="0" stop-color="#459fff"></stop><stop offset="1" stop-color="#c2ddff"></stop><stop offset="1" stop-color="#4b95f2"></stop></linearGradient><filter height="1.845" id="filter-1" node-id="5" width="1.442" x="-0.221" y="-0.423"><feGaussianBlur color-interpolation-filters="linearRGB" in="SourceGraphic" result="result1" stdDeviation="50 50"></feGaussianBlur></filter><filter height="1.028" id="filter-2" node-id="7" width="1.017" x="-0.009" y="-0.014"><feGaussianBlur color-interpolation-filters="linearRGB" in="SourceGraphic" result="result1" stdDeviation="1 1"></feGaussianBlur></filter><filter height="1.028" id="filter-3" node-id="9" width="1.017" x="-0.009" y="-0.014"><feGaussianBlur color-interpolation-filters="linearRGB" in="SourceGraphic" result="result1" stdDeviation="1 1"></feGaussianBlur></filter><filter height="1" id="filter-5" node-id="14" width="1" x="0" y="0"><feGaussianBlur color-interpolation-filters="linearRGB" in="SourceGraphic" result="result1" stdDeviation="0 0"></feGaussianBlur></filter><filter height="1" id="filter-7" node-id="21" width="1" x="0" y="0"><feGaussianBlur color-interpolation-filters="linearRGB" in="SourceGraphic" result="result1" stdDeviation="0 0"></feGaussianBlur></filter><filter height="1" id="filter-8" node-id="23" width="1" x="0" y="0"><feGaussianBlur color-interpolation-filters="linearRGB" in="SourceGraphic" result="result1" stdDeviation="0 0"></feGaussianBlur></filter></defs><g node-id="90"><g node-id="91"><g node-id="92"><path d="M 182.25 655.17 L 580.24 884.96 L 861.00 618.15 L 404.83 530.14 Z" fill="#595656" fill-opacity="0.316569" fill-rule="evenodd" filter="url(#filter-1)" group-id="1,2,3" id="路径-23" node-id="28" stroke="none" target-height="354.8211" target-width="678.75" target-x="182.25" target-y="530.13995"></path></g><g node-id="93"><g node-id="94"><path d="M 182.25 563.13 L 398.31 740.73 L 727.57 691.57 L 832.48 458.24 L 602.87 282.46 L 266.47 333.74 Z" fill="#cadefe" fill-rule="evenodd" group-id="1,2,4,5" id="路径-16" node-id="31" stroke="none" target-height="458.26666" target-width="650.2311" target-x="182.25" target-y="282.4621"></path><path d="M 182.25 559.83 L 182.25 655.17 L 386.95 836.00 L 386.95 735.13 Z" fill="#b3cef6" fill-rule="evenodd" group-id="1,2,4,5" id="路径-20" node-id="32" stroke="none" target-height="276.16595" target-width="204.7024" target-x="182.25" target-y="559.83405"></path><g node-id="98"><path d="M 724.11 692.49 L 724.11 797.92 L 386.95 836.00 L 386.95 737.41 Z" fill="#b9d5ff" fill-rule="evenodd" group-id="1,2,4,5,9" id="路径-20备份" node-id="33" stroke="none" target-height="143.50983" target-width="337.15686" target-x="386.9524" target-y="692.4902"></path></g><path d="M 832.48 463.36 L 832.48 566.71 L 724.11 800.06 L 724.11 695.06 Z" fill="#95afe7" fill-rule="nonzero" group-id="1,2,4,5" id="路径-21" node-id="34" stroke="none" target-height="336.7054" target-width="108.371826" target-x="724.10925" target-y="463.35684"></path></g><g node-id="95"><path d="M 267.88 493.50 L 416.52 590.12 L 619.37 479.98 L 443.63 378.90 Z" fill="#5f6fa5" fill-opacity="0.13537017" fill-rule="evenodd" filter="url(#filter-2)" group-id="1,2,4,6" id="路径-24" node-id="35" stroke="none" target-height="211.21841" target-width="351.49554" target-x="267.87732" target-y="378.90164"></path></g><g node-id="96"><path d="M 450.65 620.24 L 599.30 716.85 L 802.15 606.71 L 626.40 505.63 Z" fill="#5f6fa5" fill-opacity="0.13537017" fill-rule="evenodd" filter="url(#filter-3)" group-id="1,2,4,7" id="路径-24备份" node-id="36" stroke="none" target-height="211.21838" target-width="351.4955" target-x="450.655" target-y="505.6327"></path></g><g node-id="97"><g node-id="99"><path d="M 404.43 516.51 L 265.64 429.13 L 265.64 290.79 L 404.43 378.06 Z" fill="#5da4ff" fill-rule="nonzero" group-id="1,2,4,8,10" id="路径" node-id="39" stroke="none" target-height="225.72491" target-width="138.78949" target-x="265.63928" target-y="290.78827"></path><g node-id="103"><path d="M 404.43 516.51 L 543.22 429.13 L 543.22 290.79 L 404.43 378.06 Z" fill="url(#linearGradient-4)" fill-rule="nonzero" filter="url(#filter-5)" group-id="1,2,4,8,10,14" id="路径" node-id="40" stroke="none" target-height="225.72491" target-width="138.78949" target-x="404.42877" target-y="290.78827"></path></g><path d="M 543.22 290.79 L 404.43 378.06 L 265.64 290.79 L 404.43 216.28 Z" fill="url(#linearGradient-6)" fill-rule="nonzero" group-id="1,2,4,8,10" id="路径" node-id="41" stroke="none" target-height="161.78236" target-width="277.57898" target-x="265.63928" target-y="216.28032"></path></g><g node-id="100"><path d="M 583.81 488.24 L 475.24 417.74 L 476.11 412.10 L 477.46 407.09 L 479.25 402.63 L 481.47 398.67 L 484.20 395.03 L 487.49 391.69 L 491.37 388.65 L 495.91 385.90 L 604.48 456.41 L 583.81 488.24 Z" fill="#1960d1" fill-rule="nonzero" group-id="1,2,4,8,11" id="路径-25" node-id="42" stroke="none" target-height="102.344666" target-width="129.24725" target-x="475.23737" target-y="385.89966"></path></g><path d="M 594.24 668.59 L 455.45 581.21 L 455.45 442.87 L 594.24 530.14 Z" fill="#5da4ff" fill-rule="nonzero" group-id="1,2,4,8" id="路径" node-id="43" stroke="none" target-height="225.72495" target-width="138.78946" target-x="455.44687" target-y="442.8655"></path><path d="M 594.24 668.59 L 733.03 581.21 L 733.03 442.87 L 594.24 530.14 Z" fill="url(#linearGradient-4)" fill-rule="nonzero" filter="url(#filter-7)" group-id="1,2,4,8,12" id="路径" node-id="44" stroke="none" target-height="225.72495" target-width="138.78949" target-x="594.2363" target-y="442.8655"></path><path d="M 733.03 442.87 L 594.24 530.14 L 455.45 442.87 L 594.24 368.36 Z" fill="url(#linearGradient-6)" fill-rule="nonzero" group-id="1,2,4,8" id="路径" node-id="45" stroke="none" target-height="161.78238" target-width="277.57895" target-x="455.44687" target-y="368.35757"></path><path d="M 423.81 175.53 L 423.81 304.99 L 418.61 307.33 L 413.67 308.93 L 408.96 309.85 L 404.43 310.15 L 399.88 309.84 L 395.30 308.91 L 390.63 307.31 L 385.85 304.99 L 385.85 175.53 L 423.81 175.53 Z" fill="#1960d1" fill-rule="nonzero" group-id="1,2,4,8" id="路径-25" node-id="46" stroke="none" target-height="134.61804" target-width="37.961487" target-x="385.85077" target-y="175.53485"></path><path d="M 404.43 329.23 L 265.64 241.85 L 265.64 103.51 L 404.43 190.78 Z" fill="#5da4ff" fill-rule="nonzero" group-id="1,2,4,8" id="路径" node-id="47" stroke="none" target-height="225.72495" target-width="138.78949" target-x="265.63928" target-y="103.507935"></path><path d="M 404.43 329.23 L 543.22 241.85 L 543.22 103.51 L 404.43 190.78 Z" fill="url(#linearGradient-4)" fill-rule="nonzero" filter="url(#filter-8)" group-id="1,2,4,8,13" id="路径" node-id="48" stroke="none" target-height="225.72495" target-width="138.78949" target-x="404.42877" target-y="103.507935"></path><path d="M 543.22 103.51 L 404.43 190.78 L 265.64 103.51 L 404.43 29.00 Z" fill="url(#linearGradient-6)" fill-rule="nonzero" group-id="1,2,4,8" id="路径" node-id="49" stroke="none" target-height="161.78238" target-width="277.57898" target-x="265.63928" target-y="29"></path></g></g></g></g></svg>