<?xml version="1.0" standalone="no"?><!DOCTYPE svg PUBLIC "-//W3C//DTD SVG 1.1//EN" "http://www.w3.org/Graphics/SVG/1.1/DTD/svg11.dtd"><svg height="1024" node-id="1" sillyvg="true" template-height="1024" template-width="1024" version="1.1" viewBox="0 0 1024 1024" width="1024" xmlns="http://www.w3.org/2000/svg" xmlns:xlink="http://www.w3.org/1999/xlink"><defs node-id="65"><linearGradient gradientUnits="userSpaceOnUse" id="paint0_linear_1_29" node-id="38" spreadMethod="pad" x1="376.936" x2="7091.95" y1="3029.61" y2="8876.63"><stop offset="0" stop-color="#fff8fc"></stop><stop offset="1" stop-color="#3f84ef"></stop></linearGradient><linearGradient gradientUnits="userSpaceOnUse" id="paint1_linear_1_29" node-id="41" spreadMethod="pad" x1="22687.2" x2="15240.3" y1="10197.3" y2="35183.4"><stop offset="0" stop-color="#3e83ee"></stop><stop offset="1" stop-color="#5986f0"></stop></linearGradient><linearGradient gradientUnits="userSpaceOnUse" id="paint2_linear_1_29" node-id="44" spreadMethod="pad" x1="60798.4" x2="16525.2" y1="16036.2" y2="52333.4"><stop offset="0" stop-color="#459fff"></stop><stop offset="1" stop-color="#4b95f2"></stop></linearGradient><linearGradient gradientUnits="userSpaceOnUse" id="paint3_linear_1_29" node-id="47" spreadMethod="pad" x1="888.845" x2="2584.48" y1="2464.53" y2="2580.07"><stop offset="0" stop-color="#c5dcfa"></stop><stop offset="1" stop-color="#fff9fc"></stop></linearGradient><linearGradient gradientUnits="userSpaceOnUse" id="paint4_linear_1_29" node-id="50" spreadMethod="pad" x1="376.964" x2="7432.96" y1="2961.43" y2="8750.87"><stop offset="0" stop-color="#fff8fc"></stop><stop offset="1" stop-color="#3f84ef"></stop></linearGradient><linearGradient gradientUnits="userSpaceOnUse" id="paint5_linear_1_29" node-id="53" spreadMethod="pad" x1="22692.8" x2="15245.9" y1="9986.79" y2="34972.9"><stop offset="0" stop-color="#3e83ee"></stop><stop offset="1" stop-color="#5986f0"></stop></linearGradient><linearGradient gradientUnits="userSpaceOnUse" id="paint6_linear_1_29" node-id="56" spreadMethod="pad" x1="60803.9" x2="15403" y1="16319.8" y2="52373.1"><stop offset="0" stop-color="#459fff"></stop><stop offset="1" stop-color="#4b95f2"></stop></linearGradient><linearGradient gradientUnits="userSpaceOnUse" id="paint7_linear_1_29" node-id="59" spreadMethod="pad" x1="888.864" x2="2584.5" y1="2256.01" y2="2371.54"><stop offset="0" stop-color="#c5dcfa"></stop><stop offset="1" stop-color="#fff9fc"></stop></linearGradient><filter height="554.821" id="filter0_f_1_29" node-id="34" width="878.75" x="80.25" y="491.141"><feFlood color-interpolation-filters="sRGB" flood-color="#000000" flood-opacity="0" result="BackgroundImageFix"></feFlood><feBlend color-interpolation-filters="sRGB" in="SourceGraphic" in2="BackgroundImageFix" mode="normal" result="shape"></feBlend><feGaussianBlur color-interpolation-filters="sRGB" in="shape" result="effect1_foregroundBlur_1_29" stdDeviation="50 50"></feGaussianBlur></filter><clipPath id="clip0_1_29" node-id="62"><path d="M 0.00 0.00 L 1024.00 0.00 L 1024.00 1024.00 L 0.00 1024.00 Z" fill="#000000" fill-rule="nonzero" node-id="124" stroke="none" target-height="1024" target-width="1024" target-x="0" target-y="0"></path></clipPath><mask height="79" id="mask0_1_29" maskUnits="userSpaceOnUse" node-id="6" width="94" x="376" y="737"><path d="M 379.05 745.48 C 377.81 747.62 377.14 750.02 377.08 752.47 L 376.94 761.22 C 376.89 771.62 382.86 781.23 392.49 786.22 L 445.64 813.80 C 453.46 817.87 463.27 815.13 467.54 807.69 C 468.45 806.12 469.05 804.41 469.33 802.64 L 469.54 789.49 C 468.71 780.05 462.95 771.55 454.09 766.95 L 400.95 739.37 C 398.50 738.09 395.85 737.49 393.23 737.49 C 387.52 737.49 381.98 740.37 379.05 745.48 Z" fill="#ffffff" fill-rule="nonzero" node-id="128" stroke="none" target-height="80.38501" target-width="92.64801" target-x="376.895" target-y="737.485"></path></mask><mask height="432" id="mask1_1_29" maskUnits="userSpaceOnUse" node-id="11" width="754" x="132" y="331"><path d="M 132.05 540.26 L 508.07 762.74 L 885.35 540.26 L 508.07 331.47 L 132.05 540.26 Z" fill="#ffffff" fill-rule="nonzero" node-id="132" stroke="none" target-height="431.268" target-width="753.303" target-x="132.049" target-y="331.472"></path></mask><mask height="38" id="mask2_1_29" maskUnits="userSpaceOnUse" node-id="15" width="29" x="315" y="708"><path d="M 315.72 717.80 C 314.05 726.73 318.89 738.03 326.55 743.07 C 334.19 748.09 341.75 744.93 343.43 736.00 C 345.10 727.08 340.25 715.77 332.60 710.74 C 330.14 709.12 327.68 708.36 325.43 708.36 C 320.70 708.36 316.85 711.75 315.72 717.80 Z" fill="#ffffff" fill-rule="nonzero" node-id="136" stroke="none" target-height="39.731018" target-width="31.054016" target-x="314.047" target-y="708.357"></path></mask><mask height="84" id="mask3_1_29" maskUnits="userSpaceOnUse" node-id="20" width="94" x="376" y="528"><path d="M 379.08 537.44 C 377.84 539.72 377.17 542.27 377.11 544.86 L 376.96 554.14 C 376.92 565.18 382.89 575.38 392.52 580.68 L 445.66 609.95 C 453.49 614.26 463.30 611.36 467.57 603.47 C 468.48 601.80 469.07 599.98 469.36 598.11 L 469.57 584.15 C 468.74 574.13 462.98 565.11 454.12 560.22 L 400.98 530.96 C 398.52 529.60 395.87 528.96 393.26 528.96 C 387.55 528.96 382.01 532.02 379.08 537.44 Z" fill="#ffffff" fill-rule="nonzero" node-id="140" stroke="none" target-height="85.30701" target-width="92.647" target-x="376.924" target-y="528.958"></path></mask><mask height="435" id="mask4_1_29" maskUnits="userSpaceOnUse" node-id="25" width="755" x="136" y="117"><path d="M 136.35 331.51 L 514.31 551.30 L 890.92 331.51 L 513.63 117.14 L 136.35 331.51 Z" fill="#ffffff" fill-rule="nonzero" node-id="144" stroke="none" target-height="434.165" target-width="754.56903" target-x="136.349" target-y="117.137"></path></mask><mask height="38" id="mask5_1_29" maskUnits="userSpaceOnUse" node-id="29" width="29" x="315" y="499"><path d="M 315.74 509.28 C 314.07 518.20 318.91 529.51 326.57 534.54 C 334.21 539.56 341.77 536.40 343.45 527.47 C 345.12 518.55 340.27 507.25 332.62 502.22 C 330.16 500.60 327.70 499.83 325.45 499.83 C 320.72 499.83 316.87 503.24 315.74 509.28 Z" fill="#ffffff" fill-rule="nonzero" node-id="148" stroke="none" target-height="39.731018" target-width="31.054993" target-x="314.066" target-y="499.831"></path></mask></defs><g clip-path="url(#clip0_1_29)" id="sillyvg_g_0" node-id="152"><path d="M 180.25 716.17 L 578.24 945.96 L 859.00 679.15 L 402.83 591.14 L 180.25 716.17 Z" fill="#595656" fill-opacity="0.316569" fill-rule="evenodd" filter="url(#filter0_f_1_29)" group-id="1" node-id="156" stroke="none" target-height="354.82098" target-width="678.75" target-x="180.25" target-y="591.141"></path><path d="M 508.76 905.86 L 132.06 683.29 L 132.06 540.24 L 508.76 762.81 L 508.76 905.86 Z" fill="#5da4ff" fill-rule="evenodd" node-id="159" stroke="none" target-height="365.61804" target-width="376.69702" target-x="132.062" target-y="540.238"></path><path d="M 379.05 745.48 C 377.81 747.62 377.14 750.02 377.08 752.47 L 376.94 761.22 C 376.90 771.62 382.86 781.23 392.49 786.22 L 445.64 813.80 C 453.46 817.87 463.27 815.13 467.54 807.69 C 468.45 806.12 469.05 804.41 469.33 802.64 L 469.54 789.49 C 468.72 780.05 462.95 771.55 454.09 766.95 L 400.95 739.37 C 398.50 738.09 395.85 737.49 393.23 737.49 C 387.52 737.49 381.98 740.37 379.05 745.48 Z" fill="url(#paint0_linear_1_29)" fill-rule="evenodd" group-id="2" node-id="163" stroke="none" target-height="80.38403" target-width="92.647" target-x="376.896" target-y="737.485"></path><path d="M 508.76 905.86 L 885.45 683.29 L 885.45 540.24 L 508.76 762.81 L 508.76 905.86 Z" fill="url(#paint1_linear_1_29)" fill-rule="evenodd" node-id="166" stroke="none" target-height="365.61804" target-width="376.697" target-x="508.756" target-y="540.238"></path><path d="M 132.05 540.26 L 508.07 762.74 L 885.35 540.26 L 508.07 331.47 L 132.05 540.26 Z" fill="url(#paint2_linear_1_29)" fill-rule="evenodd" group-id="3" node-id="170" stroke="none" target-height="431.268" target-width="753.304" target-x="132.05" target-y="331.469"></path><path d="M 315.72 717.81 C 314.05 726.73 318.89 738.04 326.55 743.07 C 334.19 748.09 341.75 744.93 343.43 736.00 C 345.10 727.08 340.25 715.77 332.60 710.75 C 330.14 709.13 327.69 708.36 325.44 708.36 C 320.70 708.36 316.85 711.76 315.72 717.81 Z" fill="url(#paint3_linear_1_29)" fill-rule="evenodd" group-id="4" node-id="175" stroke="none" target-height="39.73004" target-width="31.053986" target-x="314.048" target-y="708.36"></path><path d="M 514.30 695.35 L 137.60 472.78 L 137.60 329.73 L 514.30 552.30 L 514.30 695.35 Z" fill="#5da4ff" fill-rule="evenodd" node-id="178" stroke="none" target-height="365.618" target-width="376.69702" target-x="137.604" target-y="329.728"></path><path d="M 379.08 537.44 C 377.84 539.72 377.17 542.27 377.11 544.86 L 376.96 554.14 C 376.92 565.18 382.89 575.38 392.52 580.68 L 445.66 609.95 C 453.49 614.26 463.30 611.36 467.57 603.47 C 468.48 601.80 469.07 599.98 469.36 598.11 L 469.57 584.15 C 468.74 574.13 462.98 565.11 454.12 560.22 L 400.98 530.96 C 398.52 529.60 395.87 528.96 393.26 528.96 C 387.55 528.96 382.01 532.02 379.08 537.44 Z" fill="url(#paint4_linear_1_29)" fill-rule="evenodd" group-id="5" node-id="182" stroke="none" target-height="85.30597" target-width="92.647" target-x="376.924" target-y="528.958"></path><path d="M 514.30 695.35 L 891.00 472.78 L 891.00 329.73 L 514.30 552.30 L 514.30 695.35 Z" fill="url(#paint5_linear_1_29)" fill-rule="evenodd" node-id="185" stroke="none" target-height="365.618" target-width="376.69702" target-x="514.298" target-y="329.728"></path><path d="M 137.60 331.42 L 513.62 551.30 L 890.90 332.77 L 507.49 106.06 L 137.60 331.42 Z" fill="url(#paint6_linear_1_29)" fill-rule="evenodd" group-id="6" node-id="189" stroke="none" target-height="445.24503" target-width="753.303" target-x="137.6" target-y="106.059"></path><path d="M 315.74 509.28 C 314.07 518.20 318.91 529.51 326.57 534.54 C 334.21 539.56 341.77 536.40 343.45 527.47 C 345.12 518.56 340.27 507.25 332.62 502.22 C 330.16 500.60 327.70 499.83 325.45 499.83 C 320.72 499.83 316.87 503.24 315.74 509.28 Z" fill="url(#paint7_linear_1_29)" fill-rule="evenodd" group-id="7" node-id="194" stroke="none" target-height="39.72998" target-width="31.054016" target-x="314.067" target-y="499.833"></path></g></svg>