<?xml version="1.0" standalone="no"?><!DOCTYPE svg PUBLIC "-//W3C//DTD SVG 1.1//EN" "http://www.w3.org/Graphics/SVG/1.1/DTD/svg11.dtd"><svg class="icon" width="200px" height="200.00px" viewBox="0 0 1024 1024" version="1.1" xmlns="http://www.w3.org/2000/svg"><path fill="#1afa29" d="M836.266667 0H179.2C136.533333 0 85.333333 17.066667 51.2 51.2 17.066667 85.333333 0 136.533333 0 179.2v657.066667c0 51.2 17.066667 93.866667 51.2 128 34.133333 34.133333 85.333333 59.733333 128 59.733333h657.066667C938.666667 1024 1024 938.666667 1024 836.266667V179.2C1024 85.333333 938.666667 0 836.266667 0z m119.466666 836.266667c0 59.733333-51.2 110.933333-110.933333 110.933333H179.2c-59.733333 0-110.933333-51.2-110.933333-110.933333V179.2c0-59.733333 51.2-110.933333 110.933333-110.933333h657.066667c59.733333 0 110.933333 51.2 110.933333 110.933333v657.066667z"  /><path fill="#1afa29" d="M836.266667 512h-85.333334l-59.733333-264.533333c-8.533333-34.133333-59.733333-34.133333-68.266667 0L503.466667 657.066667 392.533333 392.533333c0-17.066667-17.066667-25.6-25.6-25.6s-25.6 8.533333-34.133333 17.066667L273.066667 512h-85.333334c-25.6 0-34.133333 17.066667-34.133333 34.133333s17.066667 34.133333 34.133333 34.133334h110.933334c17.066667 0 25.6-8.533333 34.133333-17.066667l42.666667-76.8 119.466666 290.133333c-8.533333 17.066667 0 25.6 17.066667 25.6s25.6-8.533333 34.133333-25.6l110.933334-392.533333 42.666666 170.666667c0 17.066667 17.066667 25.6 34.133334 25.6h110.933333c17.066667 0 34.133333-17.066667 34.133333-34.133334-8.533333-17.066667-17.066667-34.133333-42.666666-34.133333z"  /></svg>