<?xml version="1.0" standalone="no"?><!DOCTYPE svg PUBLIC "-//W3C//DTD SVG 1.1//EN" "http://www.w3.org/Graphics/SVG/1.1/DTD/svg11.dtd"><svg t="1736388455013" class="icon" viewBox="0 0 1024 1024" version="1.1" xmlns="http://www.w3.org/2000/svg" p-id="5288" xmlns:xlink="http://www.w3.org/1999/xlink" width="200" height="200"><path d="M661.957411 272.467921H383.699417l79.351139-224.98181a61.43314 61.43314 0 0 1 119.658105 0z m39.999801 113.54892h-358.359984l-41.296721 117.16665h440.953426l-41.364981-117.16665zM269.979849 871.987108h505.76539c46.382021 0 77.781181-56.313712 59.829052-107.269088l-52.18404-147.985608H262.334836L210.150797 764.615631c-17.952129 50.955377 13.447032 107.269088 59.829052 107.269089z m559.724164 22.218319H194.075792A56.757395 56.757395 0 0 0 137.284267 950.996952v16.211523A56.791525 56.791525 0 0 0 194.075792 1024h635.764739a56.791525 56.791525 0 0 0 56.791525-56.791525v-16.211523a56.791525 56.791525 0 0 0-56.791525-56.791525z" fill="#f93232" p-id="5289" data-spm-anchor-id="a313x.search_index.0.i17.39023a81ISISAJ" class="selected"></path><path d="M661.616116 272.331403H383.631158L344.21156 385.777935h357.301968l-39.795023-113.514791z" fill="#FFFFFF" p-id="5290"></path><path d="M742.673732 503.661304H303.699817l-40.272836 112.388517h519.451328l-40.204577-112.388517z" fill="#FFFFFF" p-id="5291"></path></svg>