<?xml version="1.0" standalone="no"?><!DOCTYPE svg PUBLIC "-//W3C//DTD SVG 1.1//EN" "http://www.w3.org/Graphics/SVG/1.1/DTD/svg11.dtd"><svg t="1763452779033" class="icon" viewBox="0 0 1025 1024" version="1.1" xmlns="http://www.w3.org/2000/svg" p-id="4164" xmlns:xlink="http://www.w3.org/1999/xlink" width="200.1953125" height="200"><path d="M519.473 190c134.866 0 245.729 102.853 258.547 234.458l0.334 3.754 1.466 0.154c99.756 11.363 177.493 95.335 179.153 197.815l0.027 3.348C959 741.35 868.423 832 756.69 832H269.31C157.576 832 67 741.35 67 629.529c0-101.758 75.007-185.983 172.706-200.32l1.993-0.277 0.02-0.264C252.443 296.46 362 192.215 496.346 190.035l4.296-0.035z m-7.195 131.146c-10.158 0-18.392 8.234-18.392 18.392v299.415L376.57 521.54c-7.176-7.182-18.815-7.186-25.997-0.01l-0.01 0.01c-7.185 7.19-7.184 18.84 0 26.03l149.274 149.397c7.176 7.182 18.816 7.187 25.998 0.01a18.221 18.221 0 0 0 0.724-0.765l149.028-149.15c7.183-7.189 7.183-18.84 0-26.029a18.22 18.22 0 0 0-0.01-0.01c-7.094-7.088-18.536-7.171-25.73-0.253l-0.268 0.263-118.91 119.006V339.538c0-10.158-8.234-18.392-18.391-18.392z" fill="#2c2c2c" p-id="4165"></path></svg>